<svg width="2000px" height="1443px"
 viewBox="0.00 0.00 740.29 534.02" xmlns="http://www.w3.org/2000/svg" xmlns:xlink="http://www.w3.org/1999/xlink">
<g id="graph0" class="graph" transform="scale(1.0 1.0) rotate(0) translate(4 530.02)">
<title>ContextMapGraph</title>
<polygon fill="white" stroke="transparent" points="-4,4 -4,-530.02 736.29,-530.02 736.29,4 -4,4"/>
<!-- ContextoAnalitica -->
<g id="node1" class="node">
<title>ContextoAnalitica</title>
<polygon fill="none" stroke="black" stroke-width="2" points="171.42,-189.18 171.99,-186.33 172.93,-183.5 174.22,-180.71 175.86,-177.98 177.86,-175.3 180.2,-172.7 182.88,-170.18 185.89,-167.75 189.22,-165.42 192.87,-163.19 196.83,-161.09 201.07,-159.11 205.6,-157.26 210.4,-155.54 215.46,-153.96 220.76,-152.53 226.28,-151.24 232.02,-150.11 237.96,-149.12 244.08,-148.29 250.36,-147.6 256.78,-147.07 263.34,-146.69 270.01,-146.45 276.77,-146.36 283.6,-146.41 290.48,-146.59 297.41,-146.91 304.35,-147.36 311.28,-147.92 318.19,-148.61 325.07,-149.4 331.88,-150.3 338.61,-151.3 345.24,-152.4 351.76,-153.58 358.14,-154.83 364.38,-156.17 370.44,-157.57 376.31,-159.03 381.99,-160.56 387.45,-162.13 392.67,-163.75 397.65,-165.41 402.36,-167.1 406.81,-168.83 410.96,-170.59 414.82,-172.37 418.38,-174.18 421.61,-176 424.52,-177.84 427.1,-179.7 429.33,-181.56 431.22,-183.44 432.76,-185.32 433.94,-187.21 434.76,-189.11 435.23,-191.01 435.33,-192.91 435.06,-194.82 434.44,-196.72 433.46,-198.62 432.12,-200.52 430.43,-202.42 428.4,-204.31 426.02,-206.19 423.3,-208.07 420.26,-209.93 416.9,-211.77 413.23,-213.6 409.26,-215.4 405.01,-217.18 400.47,-218.93 395.67,-220.65 390.62,-222.33 385.33,-223.96 379.82,-225.55 374.11,-227.08 368.19,-228.55 362.11,-229.95 355.86,-231.29 349.47,-232.54 342.96,-233.71 336.33,-234.78 329.62,-235.76 322.84,-236.64 316,-237.4 309.13,-238.05 302.24,-238.57 295.36,-238.97 288.5,-239.24 281.67,-239.36 274.91,-239.35 268.22,-239.19 261.63,-238.88 255.15,-238.42 248.8,-237.81 242.6,-237.05 236.56,-236.13 230.7,-235.07 225.05,-233.84 219.6,-232.47 214.38,-230.96 209.4,-229.3 204.68,-227.5 200.23,-225.57 196.06,-223.51 192.17,-221.33 188.6,-219.04 185.33,-216.65 182.39,-214.16 179.77,-211.58 177.5,-208.93 175.56,-206.21 173.98,-203.44 172.75,-200.63 171.88,-197.79 171.36,-194.92 171.21,-192.05 171.42,-189.18"/>
<text text-anchor="middle" x="303.28" y="-188.92" font-family="sans-serif" font-size="16.00">ContextoAnalitica</text>
</g>
<!-- ContextoCalidad -->
<g id="node2" class="node">
<title>ContextoCalidad</title>
<polygon fill="none" stroke="black" stroke-width="2" points="186.04,-32.26 188.97,-29.58 192.2,-26.96 195.72,-24.42 199.53,-21.95 203.6,-19.58 207.93,-17.31 212.5,-15.15 217.29,-13.11 222.3,-11.2 227.5,-9.42 232.87,-7.79 238.42,-6.3 244.11,-4.96 249.93,-3.78 255.87,-2.76 261.9,-1.9 268.03,-1.2 274.22,-0.67 280.46,-0.3 286.74,-0.09 293.04,-0.05 299.35,-0.16 305.65,-0.43 311.93,-0.85 318.17,-1.42 324.36,-2.13 330.48,-2.97 336.53,-3.95 342.48,-5.05 348.32,-6.26 354.05,-7.59 359.64,-9.02 365.1,-10.55 370.39,-12.16 375.52,-13.85 380.47,-15.61 385.23,-17.44 389.79,-19.32 394.13,-21.25 398.26,-23.23 402.15,-25.24 405.8,-27.27 409.2,-29.33 412.34,-31.41 415.21,-33.49 417.8,-35.58 420.11,-37.67 422.13,-39.76 423.85,-41.83 425.26,-43.89 426.36,-45.94 427.15,-47.97 427.61,-49.98 427.76,-51.96 427.57,-53.91 427.05,-55.84 426.21,-57.74 425.03,-59.61 423.52,-61.44 421.67,-63.24 419.5,-65.01 417,-66.74 414.18,-68.43 411.04,-70.08 407.59,-71.7 403.84,-73.27 399.79,-74.81 395.44,-76.3 390.83,-77.74 385.94,-79.14 380.8,-80.48 375.42,-81.78 369.81,-83.02 363.99,-84.2 357.97,-85.32 351.77,-86.37 345.41,-87.36 338.91,-88.27 332.28,-89.11 325.54,-89.86 318.73,-90.54 311.84,-91.12 304.92,-91.61 297.98,-92 291.03,-92.28 284.11,-92.46 277.23,-92.53 270.42,-92.49 263.7,-92.32 257.09,-92.04 250.61,-91.62 244.28,-91.08 238.12,-90.42 232.16,-89.61 226.41,-88.68 220.89,-87.61 215.61,-86.41 210.6,-85.08 205.87,-83.61 201.43,-82.02 197.3,-80.3 193.49,-78.46 190.01,-76.5 186.87,-74.42 184.08,-72.24 181.65,-69.95 179.58,-67.58 177.87,-65.11 176.54,-62.57 175.58,-59.95 174.99,-57.28 174.78,-54.56 174.94,-51.79 175.46,-49 176.35,-46.19 177.6,-43.37 179.2,-40.56 181.15,-37.76 183.43,-34.99 186.04,-32.26"/>
<text text-anchor="middle" x="303.28" y="-44.65" font-family="sans-serif" font-size="16.00">ContextoCalidad</text>
</g>
<!-- ContextoAnalitica&#45;&gt;ContextoCalidad -->
<g id="edge1" class="edge">
<title>ContextoAnalitica&#45;&gt;ContextoCalidad</title>
<path fill="none" stroke="black" stroke-width="2" d="M303.28,-147.1C303.28,-129.5 303.28,-109.37 303.28,-91.97"/>
<text text-anchor="middle" x="378.78" y="-118.3" font-family="sans-serif" font-size="12.00"> &#160;&#160;&#160;&#160;&#160;&#160;&#160;&#160;&#160;&#160;&#160;&#160;&#160;&#160;&#160;&#160;&#160;&#160;&#160;&#160;&#160;&#160;&#160;&#160;&#160;&#160;&#160;&#160;&#160;&#160;&#160;&#160;&#160;&#160;&#160;&#160;&#160;&#160;&#160;</text>
<polygon fill="white" stroke="transparent" points="296.28,-82.97 296.28,-99.97 310.28,-99.97 310.28,-82.97 296.28,-82.97"/>
<text text-anchor="start" x="298.28" y="-88.37" font-family="sans-serif" font-size="12.00">D</text>
<polygon fill="white" stroke="transparent" points="296.28,-138.1 296.28,-155.1 310.28,-155.1 310.28,-138.1 296.28,-138.1"/>
<text text-anchor="start" x="298.28" y="-143.5" font-family="sans-serif" font-size="12.00">U</text>
</g>
<!-- ContextoInvestigacion -->
<g id="node3" class="node">
<title>ContextoInvestigacion</title>
<polygon fill="none" stroke="black" stroke-width="2" points="479.55,-296.87 488.65,-295.47 497.89,-294.19 507.26,-293.03 516.7,-291.99 526.18,-291.08 535.67,-290.31 545.14,-289.68 554.54,-289.19 563.85,-288.85 573.03,-288.65 582.06,-288.6 590.9,-288.7 599.53,-288.95 607.92,-289.34 616.06,-289.89 623.92,-290.58 631.47,-291.42 638.71,-292.39 645.62,-293.51 652.18,-294.75 658.39,-296.13 664.24,-297.62 669.71,-299.24 674.81,-300.96 679.53,-302.79 683.87,-304.72 687.82,-306.74 691.39,-308.84 694.59,-311.01 697.41,-313.25 699.85,-315.55 701.93,-317.89 703.65,-320.28 705.02,-322.7 706.04,-325.14 706.71,-327.6 707.05,-330.06 707.07,-332.52 706.77,-334.97 706.15,-337.41 705.23,-339.82 704.01,-342.19 702.49,-344.53 700.69,-346.82 698.6,-349.06 696.23,-351.24 693.59,-353.36 690.67,-355.4 687.49,-357.38 684.04,-359.27 680.32,-361.09 676.35,-362.82 672.12,-364.46 667.63,-366.01 662.88,-367.47 657.88,-368.83 652.63,-370.09 647.12,-371.26 641.38,-372.32 635.39,-373.29 629.16,-374.16 622.7,-374.92 616.02,-375.59 609.12,-376.15 602,-376.62 594.69,-376.99 587.19,-377.25 579.51,-377.42 571.66,-377.5 563.67,-377.47 555.55,-377.36 547.32,-377.14 538.99,-376.84 530.6,-376.44 522.16,-375.95 513.69,-375.37 505.23,-374.71 496.8,-373.95 488.43,-373.11 480.14,-372.18 471.97,-371.17 463.94,-370.08 456.1,-368.91 448.46,-367.65 441.07,-366.32 433.94,-364.91 427.12,-363.42 420.63,-361.87 414.51,-360.24 408.78,-358.54 403.46,-356.77 398.59,-354.95 394.2,-353.06 390.29,-351.11 386.91,-349.11 384.05,-347.05 381.75,-344.96 380.01,-342.81 378.85,-340.63 378.27,-338.42 378.29,-336.18 378.9,-333.92 380.11,-331.64 381.92,-329.34 384.31,-327.05 387.29,-324.76 390.84,-322.47 394.94,-320.2 399.59,-317.96 404.76,-315.74 410.44,-313.56 416.59,-311.43 423.2,-309.35 430.23,-307.33 437.65,-305.37 445.44,-303.49 453.56,-301.7 461.97,-299.99 470.65,-298.38 479.55,-296.87"/>
<text text-anchor="middle" x="555.28" y="-331.69" font-family="sans-serif" font-size="16.00">ContextoInvestigacion</text>
</g>
<!-- ContextoInvestigacion&#45;&gt;ContextoAnalitica -->
<g id="edge2" class="edge">
<title>ContextoInvestigacion&#45;&gt;ContextoAnalitica</title>
<path fill="none" stroke="black" stroke-width="2" d="M486.09,-295.84C448.79,-275 403.09,-249.47 366.71,-229.15"/>
<text text-anchor="middle" x="511.78" y="-260.94" font-family="sans-serif" font-size="12.00"> &#160;&#160;&#160;&#160;&#160;&#160;&#160;&#160;&#160;&#160;&#160;&#160;&#160;&#160;&#160;&#160;&#160;&#160;&#160;&#160;&#160;&#160;&#160;&#160;&#160;&#160;&#160;&#160;&#160;&#160;&#160;&#160;&#160;&#160;&#160;&#160;&#160;&#160;&#160;</text>
<polygon fill="white" stroke="transparent" points="343.71,-219.15 343.71,-238.15 359.71,-238.15 359.71,-219.15 343.71,-219.15"/>
<polyline fill="none" stroke="black" points="359.71,-219.15 359.71,-238.15 "/>
<text text-anchor="start" x="346.71" y="-225.55" font-family="sans-serif" font-size="12.00">D</text>
<polygon fill="white" stroke="transparent" points="359.71,-219.15 359.71,-238.15 389.71,-238.15 389.71,-219.15 359.71,-219.15"/>
<polygon fill="none" stroke="black" points="359.71,-219.15 359.71,-238.15 389.71,-238.15 389.71,-219.15 359.71,-219.15"/>
<text text-anchor="start" x="362.71" y="-225.55" font-family="sans-serif" font-size="12.00">ACL</text>
<polygon fill="white" stroke="transparent" points="479.09,-286.84 479.09,-303.84 493.09,-303.84 493.09,-286.84 479.09,-286.84"/>
<text text-anchor="start" x="481.09" y="-292.24" font-family="sans-serif" font-size="12.00">U</text>
</g>
<!-- ContextoRecopilacionDeDatos -->
<g id="node4" class="node">
<title>ContextoRecopilacionDeDatos</title>
<polygon fill="none" stroke="black" stroke-width="2" points="119.56,-441.37 130.79,-439.85 142.25,-438.44 153.88,-437.15 165.64,-435.98 177.49,-434.94 189.38,-434.04 201.27,-433.27 213.12,-432.65 224.88,-432.17 236.52,-431.84 247.99,-431.66 259.27,-431.64 270.31,-431.76 281.09,-432.04 291.58,-432.46 301.74,-433.04 311.56,-433.76 321.01,-434.63 330.07,-435.64 338.72,-436.78 346.96,-438.06 354.76,-439.47 362.12,-441 369.02,-442.64 375.47,-444.4 381.46,-446.25 386.98,-448.2 392.03,-450.24 396.62,-452.36 400.75,-454.55 404.42,-456.8 407.64,-459.1 410.4,-461.46 412.73,-463.84 414.61,-466.26 416.07,-468.7 417.1,-471.14 417.72,-473.59 417.93,-476.04 417.73,-478.47 417.14,-480.88 416.16,-483.27 414.8,-485.61 413.06,-487.92 410.94,-490.18 408.46,-492.38 405.61,-494.53 402.4,-496.61 398.82,-498.62 394.89,-500.56 390.61,-502.42 385.97,-504.2 380.98,-505.89 375.64,-507.5 369.95,-509.01 363.92,-510.44 357.54,-511.78 350.82,-513.02 343.77,-514.16 336.38,-515.21 328.67,-516.16 320.63,-517.02 312.29,-517.77 303.64,-518.44 294.7,-519 285.48,-519.47 276,-519.85 266.27,-520.13 256.31,-520.31 246.13,-520.4 235.77,-520.4 225.24,-520.31 214.58,-520.12 203.8,-519.85 192.94,-519.48 182.02,-519.03 171.09,-518.49 160.18,-517.86 149.32,-517.14 138.55,-516.34 127.91,-515.45 117.43,-514.47 107.17,-513.42 97.14,-512.28 87.41,-511.06 78,-509.76 68.96,-508.38 60.33,-506.92 52.14,-505.39 44.43,-503.78 37.24,-502.1 30.61,-500.35 24.55,-498.53 19.11,-496.65 14.32,-494.7 10.19,-492.7 6.75,-490.64 4.02,-488.54 2.01,-486.38 0.74,-484.19 0.22,-481.96 0.45,-479.69 1.44,-477.41 3.18,-475.1 5.67,-472.78 8.9,-470.45 12.87,-468.13 17.54,-465.81 22.91,-463.51 28.96,-461.23 35.65,-458.98 42.96,-456.77 50.86,-454.6 59.32,-452.49 68.29,-450.44 77.75,-448.45 87.65,-446.55 97.94,-444.73 108.59,-443 119.56,-441.37"/>
<text text-anchor="middle" x="225.28" y="-474.93" font-family="sans-serif" font-size="16.00">ContextoRecopilacionDeDatos</text>
</g>
<!-- ContextoRecopilacionDeDatos&#45;&gt;ContextoAnalitica -->
<g id="edge4" class="edge">
<title>ContextoRecopilacionDeDatos&#45;&gt;ContextoAnalitica</title>
<path fill="none" stroke="black" stroke-width="2" d="M213.92,-432.53C206.24,-393.15 200.43,-335.2 218.28,-288.54 225.39,-269.96 238.01,-252.72 251.38,-238.18"/>
<text text-anchor="middle" x="293.78" y="-332.39" font-family="sans-serif" font-size="12.00"> &#160;&#160;&#160;&#160;&#160;&#160;&#160;&#160;&#160;&#160;&#160;&#160;&#160;&#160;&#160;&#160;&#160;&#160;&#160;&#160;&#160;&#160;&#160;&#160;&#160;&#160;&#160;&#160;&#160;&#160;&#160;&#160;&#160;&#160;&#160;&#160;&#160;&#160;&#160;</text>
<polygon fill="white" stroke="transparent" points="228.38,-228.18 228.38,-247.18 244.38,-247.18 244.38,-228.18 228.38,-228.18"/>
<polyline fill="none" stroke="black" points="244.38,-228.18 244.38,-247.18 "/>
<text text-anchor="start" x="231.38" y="-234.58" font-family="sans-serif" font-size="12.00">D</text>
<polygon fill="white" stroke="transparent" points="244.38,-228.18 244.38,-247.18 274.38,-247.18 274.38,-228.18 244.38,-228.18"/>
<polygon fill="none" stroke="black" points="244.38,-228.18 244.38,-247.18 274.38,-247.18 274.38,-228.18 244.38,-228.18"/>
<text text-anchor="start" x="247.38" y="-234.58" font-family="sans-serif" font-size="12.00">ACL</text>
<polygon fill="white" stroke="transparent" points="206.92,-423.53 206.92,-440.53 220.92,-440.53 220.92,-423.53 206.92,-423.53"/>
<text text-anchor="start" x="208.92" y="-428.93" font-family="sans-serif" font-size="12.00">U</text>
</g>
<!-- ContextoRecopilacionDeDatos&#45;&gt;ContextoInvestigacion -->
<g id="edge3" class="edge">
<title>ContextoRecopilacionDeDatos&#45;&gt;ContextoInvestigacion</title>
<path fill="none" stroke="black" stroke-width="2" d="M325.19,-434.97C372.71,-414.63 428.81,-390.62 473.72,-371.4"/>
<text text-anchor="middle" x="433.78" y="-403.83" font-family="sans-serif" font-size="12.00">Partnership</text>
</g>
</g>
</svg>
