<svg width="2000px" height="1954px"
 viewBox="0.00 0.00 693.70 678.35" xmlns="http://www.w3.org/2000/svg" xmlns:xlink="http://www.w3.org/1999/xlink">
<g id="graph0" class="graph" transform="scale(1.0 1.0) rotate(0) translate(4 674.35)">
<title>ContextMapGraph</title>
<polygon fill="white" stroke="transparent" points="-4,4 -4,-674.35 689.7,-674.35 689.7,4 -4,4"/>
<!-- ContextoAnalitica -->
<g id="node1" class="node">
<title>ContextoAnalitica</title>
<polygon fill="none" stroke="black" stroke-width="2" points="178.3,-232.27 169.78,-231.73 161.39,-231.08 153.16,-230.31 145.12,-229.43 137.32,-228.45 129.76,-227.36 122.5,-226.17 115.55,-224.88 108.95,-223.49 102.71,-222.02 96.86,-220.46 91.41,-218.82 86.39,-217.1 81.81,-215.3 77.69,-213.45 74.02,-211.52 70.83,-209.55 68.11,-207.52 65.87,-205.44 64.11,-203.32 62.82,-201.17 62,-198.98 61.65,-196.78 61.75,-194.55 62.3,-192.31 63.28,-190.07 64.68,-187.82 66.48,-185.58 68.67,-183.34 71.23,-181.13 74.13,-178.93 77.37,-176.77 80.91,-174.63 84.74,-172.53 88.84,-170.48 93.19,-168.48 97.76,-166.53 102.53,-164.64 107.49,-162.81 112.62,-161.05 117.89,-159.37 123.29,-157.76 128.8,-156.24 134.4,-154.8 140.09,-153.46 145.83,-152.2 151.63,-151.05 157.47,-149.99 163.34,-149.04 169.23,-148.2 175.12,-147.47 181.02,-146.85 186.9,-146.34 192.78,-145.94 198.64,-145.67 204.47,-145.51 210.28,-145.47 216.05,-145.55 221.79,-145.75 227.49,-146.07 233.14,-146.51 238.75,-147.06 244.31,-147.74 249.81,-148.53 255.25,-149.43 260.63,-150.44 265.93,-151.57 271.16,-152.8 276.3,-154.13 281.35,-155.56 286.3,-157.09 291.13,-158.71 295.85,-160.42 300.43,-162.21 304.86,-164.08 309.13,-166.02 313.23,-168.03 317.14,-170.1 320.84,-172.23 324.33,-174.41 327.57,-176.63 330.56,-178.89 333.28,-181.18 335.71,-183.5 337.84,-185.83 339.64,-188.17 341.1,-190.52 342.21,-192.86 342.95,-195.19 343.3,-197.51 343.26,-199.81 342.81,-202.07 341.94,-204.3 340.64,-206.48 338.91,-208.62 336.74,-210.7 334.13,-212.71 331.08,-214.66 327.58,-216.54 323.64,-218.34 319.28,-220.06 314.49,-221.68 309.28,-223.22 303.68,-224.66 297.69,-225.99 291.33,-227.22 284.63,-228.35 277.6,-229.36 270.27,-230.26 262.66,-231.04 254.81,-231.71 246.74,-232.25 238.48,-232.68 230.07,-232.98 221.54,-233.17 212.92,-233.23 204.25,-233.17 195.57,-232.99 186.91,-232.69 178.3,-232.27"/>
<text text-anchor="middle" x="205.08" y="-185.44" font-family="sans-serif" font-size="16.00">ContextoAnalitica</text>
</g>
<!-- ContextoCalidad -->
<g id="node2" class="node">
<title>ContextoCalidad</title>
<polygon fill="none" stroke="black" stroke-width="2" points="84.98,-34.77 87.36,-32.02 90.06,-29.32 93.06,-26.68 96.36,-24.12 99.95,-21.65 103.8,-19.27 107.93,-17 112.29,-14.84 116.9,-12.8 121.73,-10.9 126.76,-9.13 131.98,-7.5 137.39,-6.03 142.95,-4.7 148.67,-3.54 154.51,-2.53 160.48,-1.68 166.54,-1 172.69,-0.47 178.91,-0.11 185.18,0.08 191.49,0.13 197.83,0.01 204.17,-0.26 210.5,-0.67 216.81,-1.23 223.08,-1.93 229.3,-2.76 235.45,-3.72 241.52,-4.79 247.5,-5.98 253.36,-7.28 259.1,-8.67 264.7,-10.15 270.15,-11.72 275.44,-13.37 280.55,-15.08 285.47,-16.85 290.19,-18.68 294.69,-20.56 298.98,-22.47 303.02,-24.43 306.82,-26.4 310.37,-28.4 313.65,-30.42 316.65,-32.45 319.37,-34.49 321.8,-36.52 323.93,-38.56 325.75,-40.59 327.26,-42.61 328.45,-44.63 329.31,-46.62 329.85,-48.6 330.06,-50.57 329.93,-52.51 329.46,-54.43 328.66,-56.33 327.52,-58.2 326.05,-60.05 324.24,-61.87 322.09,-63.66 319.62,-65.43 316.82,-67.16 313.71,-68.86 310.28,-70.53 306.55,-72.16 302.52,-73.76 298.21,-75.32 293.62,-76.83 288.76,-78.31 283.66,-79.73 278.32,-81.11 272.75,-82.43 266.97,-83.7 261.01,-84.91 254.87,-86.05 248.57,-87.12 242.13,-88.12 235.57,-89.04 228.9,-89.88 222.16,-90.63 215.36,-91.29 208.51,-91.85 201.65,-92.31 194.79,-92.66 187.95,-92.89 181.15,-93.01 174.42,-93.01 167.77,-92.89 161.23,-92.63 154.81,-92.25 148.54,-91.73 142.44,-91.07 136.52,-90.27 130.8,-89.34 125.3,-88.26 120.04,-87.05 115.03,-85.7 110.28,-84.21 105.82,-82.59 101.66,-80.84 97.79,-78.96 94.25,-76.96 91.03,-74.84 88.15,-72.62 85.61,-70.28 83.42,-67.86 81.58,-65.34 80.1,-62.75 78.98,-60.09 78.22,-57.37 77.82,-54.6 77.79,-51.79 78.11,-48.95 78.79,-46.1 79.83,-43.25 81.21,-40.4 82.93,-37.57 84.98,-34.77"/>
<text text-anchor="middle" x="205.08" y="-44.33" font-family="sans-serif" font-size="16.00">ContextoCalidad</text>
</g>
<!-- ContextoAnalitica&#45;&gt;ContextoCalidad -->
<g id="edge1" class="edge">
<title>ContextoAnalitica&#45;&gt;ContextoCalidad</title>
<path fill="none" stroke="black" stroke-width="2" d="M205.08,-145.37C205.08,-128.44 205.08,-109.03 205.08,-92.1"/>
<text text-anchor="middle" x="280.58" y="-117.65" font-family="sans-serif" font-size="12.00"> &#160;&#160;&#160;&#160;&#160;&#160;&#160;&#160;&#160;&#160;&#160;&#160;&#160;&#160;&#160;&#160;&#160;&#160;&#160;&#160;&#160;&#160;&#160;&#160;&#160;&#160;&#160;&#160;&#160;&#160;&#160;&#160;&#160;&#160;&#160;&#160;&#160;&#160;&#160;</text>
<polygon fill="white" stroke="transparent" points="198.08,-83.1 198.08,-100.1 212.08,-100.1 212.08,-83.1 198.08,-83.1"/>
<text text-anchor="start" x="200.08" y="-88.5" font-family="sans-serif" font-size="12.00">D</text>
<polygon fill="white" stroke="transparent" points="198.08,-136.37 198.08,-153.37 212.08,-153.37 212.08,-136.37 198.08,-136.37"/>
<text text-anchor="start" x="200.08" y="-141.77" font-family="sans-serif" font-size="12.00">U</text>
</g>
<!-- ContextoInvestigacion -->
<g id="node3" class="node">
<title>ContextoInvestigacion</title>
<polygon fill="none" stroke="black" stroke-width="2" points="667.1,-349.25 662.89,-351.88 658.31,-354.45 653.37,-356.94 648.1,-359.34 642.5,-361.65 636.6,-363.84 630.42,-365.92 623.98,-367.88 617.29,-369.7 610.39,-371.39 603.28,-372.93 596,-374.32 588.56,-375.56 580.98,-376.63 573.28,-377.55 565.49,-378.3 557.62,-378.89 549.7,-379.31 541.75,-379.57 533.77,-379.66 525.8,-379.59 517.86,-379.36 509.95,-378.98 502.1,-378.44 494.32,-377.76 486.64,-376.93 479.07,-375.97 471.62,-374.89 464.31,-373.67 457.16,-372.35 450.18,-370.91 443.38,-369.38 436.78,-367.75 430.4,-366.04 424.24,-364.25 418.33,-362.39 412.66,-360.47 407.26,-358.5 402.14,-356.48 397.31,-354.43 392.77,-352.34 388.55,-350.23 384.65,-348.11 381.08,-345.97 377.85,-343.83 374.97,-341.69 372.45,-339.55 370.3,-337.42 368.52,-335.31 367.13,-333.22 366.13,-331.14 365.52,-329.1 365.31,-327.08 365.51,-325.09 366.12,-323.13 367.14,-321.21 368.57,-319.32 370.41,-317.47 372.67,-315.66 375.34,-313.89 378.42,-312.16 381.9,-310.47 385.79,-308.82 390.07,-307.22 394.74,-305.66 399.78,-304.15 405.19,-302.69 410.96,-301.28 417.06,-299.91 423.5,-298.6 430.25,-297.35 437.29,-296.15 444.62,-295.01 452.19,-293.93 460.01,-292.92 468.04,-291.98 476.26,-291.1 484.65,-290.31 493.19,-289.59 501.84,-288.95 510.58,-288.4 519.38,-287.95 528.22,-287.58 537.07,-287.32 545.89,-287.16 554.67,-287.1 563.37,-287.16 571.97,-287.33 580.43,-287.62 588.72,-288.03 596.83,-288.56 604.72,-289.21 612.37,-290 619.75,-290.91 626.84,-291.95 633.61,-293.12 640.05,-294.42 646.13,-295.85 651.82,-297.41 657.13,-299.09 662.02,-300.89 666.48,-302.8 670.5,-304.83 674.07,-306.97 677.18,-309.21 679.82,-311.54 681.98,-313.97 683.67,-316.47 684.87,-319.04 685.58,-321.68 685.81,-324.37 685.57,-327.11 684.84,-329.87 683.65,-332.66 681.99,-335.46 679.87,-338.26 677.31,-341.06 674.32,-343.82 670.91,-346.56 667.1,-349.25"/>
<text text-anchor="middle" x="522.08" y="-327.08" font-family="sans-serif" font-size="16.00">ContextoInvestigacion</text>
</g>
<!-- ContextoInvestigacion&#45;&gt;ContextoAnalitica -->
<g id="edge2" class="edge">
<title>ContextoInvestigacion&#45;&gt;ContextoAnalitica</title>
<path fill="none" stroke="black" stroke-width="2" d="M443.31,-295.18C396.65,-274.63 337.51,-248.58 289.83,-227.58"/>
<text text-anchor="middle" x="438.58" y="-254.64" font-family="sans-serif" font-size="12.00"> &#160;&#160;&#160;&#160;&#160;&#160;&#160;&#160;&#160;&#160;&#160;&#160;&#160;&#160;&#160;&#160;&#160;&#160;&#160;&#160;&#160;&#160;&#160;&#160;&#160;&#160;&#160;&#160;&#160;&#160;&#160;&#160;&#160;&#160;&#160;&#160;&#160;&#160;&#160;</text>
<polygon fill="white" stroke="transparent" points="266.83,-217.58 266.83,-236.58 282.83,-236.58 282.83,-217.58 266.83,-217.58"/>
<polyline fill="none" stroke="black" points="282.83,-217.58 282.83,-236.58 "/>
<text text-anchor="start" x="269.83" y="-223.98" font-family="sans-serif" font-size="12.00">D</text>
<polygon fill="white" stroke="transparent" points="282.83,-217.58 282.83,-236.58 312.83,-236.58 312.83,-217.58 282.83,-217.58"/>
<polygon fill="none" stroke="black" points="282.83,-217.58 282.83,-236.58 312.83,-236.58 312.83,-217.58 282.83,-217.58"/>
<text text-anchor="start" x="285.83" y="-223.98" font-family="sans-serif" font-size="12.00">ACL</text>
<polygon fill="white" stroke="transparent" points="436.31,-286.18 436.31,-303.18 450.31,-303.18 450.31,-286.18 436.31,-286.18"/>
<text text-anchor="start" x="438.31" y="-291.58" font-family="sans-serif" font-size="12.00">U</text>
</g>
<!-- ContextoNormalizacion -->
<g id="node4" class="node">
<title>ContextoNormalizacion</title>
<polygon fill="none" stroke="black" stroke-width="2" points="366.43,-614.85 368.33,-617.66 369.76,-620.48 370.73,-623.3 371.23,-626.09 371.26,-628.85 370.81,-631.56 369.87,-634.23 368.46,-636.83 366.56,-639.36 364.2,-641.81 361.36,-644.18 358.05,-646.44 354.3,-648.6 350.09,-650.66 345.45,-652.59 340.39,-654.41 334.93,-656.1 329.07,-657.67 322.84,-659.1 316.26,-660.4 309.34,-661.57 302.11,-662.6 294.6,-663.5 286.82,-664.26 278.79,-664.89 270.55,-665.39 262.13,-665.77 253.54,-666.01 244.81,-666.14 235.98,-666.14 227.07,-666.03 218.11,-665.81 209.13,-665.48 200.15,-665.05 191.2,-664.52 182.32,-663.89 173.53,-663.18 164.85,-662.39 156.31,-661.51 147.94,-660.56 139.76,-659.53 131.79,-658.44 124.06,-657.29 116.59,-656.08 109.4,-654.8 102.51,-653.48 95.93,-652.11 89.69,-650.68 83.8,-649.21 78.27,-647.7 73.12,-646.14 68.35,-644.55 63.98,-642.92 60.02,-641.24 56.47,-639.54 53.35,-637.79 50.65,-636.02 48.38,-634.21 46.54,-632.37 45.13,-630.5 44.15,-628.6 43.61,-626.67 43.5,-624.72 43.81,-622.74 44.54,-620.74 45.69,-618.72 47.26,-616.68 49.22,-614.63 51.58,-612.57 54.33,-610.5 57.46,-608.43 60.96,-606.36 64.82,-604.29 69.02,-602.24 73.56,-600.2 78.43,-598.19 83.6,-596.21 89.08,-594.26 94.84,-592.36 100.87,-590.51 107.16,-588.71 113.69,-586.98 120.45,-585.33 127.41,-583.75 134.58,-582.26 141.93,-580.87 149.44,-579.58 157.09,-578.4 164.88,-577.34 172.78,-576.4 180.77,-575.59 188.84,-574.92 196.96,-574.39 205.13,-574.01 213.31,-573.78 221.5,-573.71 229.67,-573.79 237.79,-574.03 245.86,-574.44 253.85,-575.01 261.74,-575.74 269.51,-576.64 277.15,-577.7 284.62,-578.91 291.9,-580.28 298.99,-581.8 305.86,-583.46 312.48,-585.27 318.84,-587.21 324.92,-589.27 330.71,-591.46 336.17,-593.75 341.3,-596.14 346.07,-598.63 350.47,-601.19 354.49,-603.83 358.11,-606.52 361.31,-609.26 364.09,-612.04 366.43,-614.85"/>
<text text-anchor="middle" x="205.08" y="-618.17" font-family="sans-serif" font-size="16.00">ContextoNormalizacion</text>
</g>
<!-- ContextoRecopilacionDeDatos -->
<g id="node5" class="node">
<title>ContextoRecopilacionDeDatos</title>
<polygon fill="none" stroke="black" stroke-width="2" points="407.64,-472.45 409.08,-475.3 409.95,-478.15 410.24,-480.99 409.96,-483.79 409.09,-486.55 407.65,-489.26 405.63,-491.91 403.03,-494.49 399.86,-496.99 396.13,-499.4 391.84,-501.71 387.01,-503.91 381.64,-506 375.76,-507.98 369.38,-509.83 362.51,-511.55 355.18,-513.15 347.4,-514.6 339.21,-515.92 330.62,-517.1 321.66,-518.14 312.35,-519.03 302.73,-519.79 292.83,-520.41 282.66,-520.89 272.28,-521.24 261.7,-521.45 250.96,-521.54 240.09,-521.5 229.13,-521.33 218.11,-521.06 207.06,-520.67 196.01,-520.17 185.01,-519.57 174.08,-518.87 163.26,-518.08 152.58,-517.2 142.06,-516.24 131.75,-515.21 121.67,-514.1 111.84,-512.92 102.31,-511.68 93.09,-510.38 84.21,-509.02 75.7,-507.62 67.58,-506.16 59.86,-504.66 52.58,-503.12 45.74,-501.54 39.37,-499.92 33.47,-498.27 28.08,-496.58 23.18,-494.87 18.81,-493.12 14.96,-491.35 11.64,-489.54 8.87,-487.72 6.64,-485.86 4.95,-483.99 3.81,-482.09 3.21,-480.17 3.16,-478.23 3.65,-476.27 4.68,-474.3 6.24,-472.31 8.32,-470.31 10.92,-468.3 14.03,-466.28 17.62,-464.27 21.71,-462.25 26.26,-460.23 31.27,-458.22 36.73,-456.23 42.61,-454.26 48.9,-452.3 55.59,-450.38 62.66,-448.5 70.08,-446.65 77.85,-444.85 85.93,-443.11 94.32,-441.44 102.98,-439.83 111.91,-438.29 121.07,-436.85 130.44,-435.49 140.01,-434.24 149.75,-433.09 159.63,-432.05 169.64,-431.13 179.75,-430.34 189.93,-429.68 200.16,-429.16 210.41,-428.79 220.67,-428.56 230.9,-428.48 241.09,-428.56 251.19,-428.8 261.2,-429.2 271.08,-429.75 280.82,-430.47 290.37,-431.36 299.73,-432.4 308.86,-433.6 317.73,-434.95 326.34,-436.46 334.64,-438.11 342.62,-439.91 350.26,-441.84 357.53,-443.9 364.4,-446.08 370.87,-448.37 376.91,-450.77 382.5,-453.26 387.62,-455.84 392.25,-458.48 396.39,-461.2 400.01,-463.96 403.09,-466.77 405.64,-469.6 407.64,-472.45"/>
<text text-anchor="middle" x="205.08" y="-472.75" font-family="sans-serif" font-size="16.00">ContextoRecopilacionDeDatos</text>
</g>
<!-- ContextoNormalizacion&#45;&gt;ContextoRecopilacionDeDatos -->
<g id="edge3" class="edge">
<title>ContextoNormalizacion&#45;&gt;ContextoRecopilacionDeDatos</title>
<path fill="none" stroke="black" stroke-width="2" d="M205.08,-574.01C205.08,-556.85 205.08,-537.55 205.08,-520.74"/>
<text text-anchor="middle" x="239.58" y="-545.99" font-family="sans-serif" font-size="12.00">Partnership</text>
</g>
<!-- ContextoRecopilacionDeDatos&#45;&gt;ContextoAnalitica -->
<g id="edge4" class="edge">
<title>ContextoRecopilacionDeDatos&#45;&gt;ContextoAnalitica</title>
<path fill="none" stroke="black" stroke-width="2" d="M200.98,-428.7C199.79,-413.07 198.66,-395.56 198.08,-379.52 196.51,-336.31 196.44,-325.44 198.08,-282.24 198.69,-266.23 199.89,-248.69 201.13,-233.26"/>
<text text-anchor="middle" x="273.58" y="-327.78" font-family="sans-serif" font-size="12.00"> &#160;&#160;&#160;&#160;&#160;&#160;&#160;&#160;&#160;&#160;&#160;&#160;&#160;&#160;&#160;&#160;&#160;&#160;&#160;&#160;&#160;&#160;&#160;&#160;&#160;&#160;&#160;&#160;&#160;&#160;&#160;&#160;&#160;&#160;&#160;&#160;&#160;&#160;&#160;</text>
<polygon fill="white" stroke="transparent" points="178.13,-223.26 178.13,-242.26 194.13,-242.26 194.13,-223.26 178.13,-223.26"/>
<polyline fill="none" stroke="black" points="194.13,-223.26 194.13,-242.26 "/>
<text text-anchor="start" x="181.13" y="-229.66" font-family="sans-serif" font-size="12.00">D</text>
<polygon fill="white" stroke="transparent" points="194.13,-223.26 194.13,-242.26 224.13,-242.26 224.13,-223.26 194.13,-223.26"/>
<polygon fill="none" stroke="black" points="194.13,-223.26 194.13,-242.26 224.13,-242.26 224.13,-223.26 194.13,-223.26"/>
<text text-anchor="start" x="197.13" y="-229.66" font-family="sans-serif" font-size="12.00">ACL</text>
<polygon fill="white" stroke="transparent" points="193.98,-419.7 193.98,-436.7 207.98,-436.7 207.98,-419.7 193.98,-419.7"/>
<text text-anchor="start" x="195.98" y="-425.1" font-family="sans-serif" font-size="12.00">U</text>
</g>
<!-- ContextoRecopilacionDeDatos&#45;&gt;ContextoInvestigacion -->
<g id="edge5" class="edge">
<title>ContextoRecopilacionDeDatos&#45;&gt;ContextoInvestigacion</title>
<path fill="none" stroke="black" stroke-width="2" d="M300.19,-432.45C344.96,-412.15 397.81,-388.2 440.7,-368.76"/>
<text text-anchor="middle" x="407.58" y="-400.92" font-family="sans-serif" font-size="12.00">Partnership</text>
</g>
</g>
</svg>
